<?xml version="1.0" encoding="utf-8"?>
<!-- Generator: Adobe Illustrator 16.0.0, SVG Export Plug-In . SVG Version: 6.00 Build 0)  -->
<!DOCTYPE svg PUBLIC "-//W3C//DTD SVG 1.1//EN" "http://www.w3.org/Graphics/SVG/1.1/DTD/svg11.dtd">
<svg version="1.1" id="Layer_1" xmlns="http://www.w3.org/2000/svg" xmlns:xlink="http://www.w3.org/1999/xlink" x="0px" y="0px"
	 width="78.006px" height="77.974px" viewBox="0 0 78.006 77.974" enable-background="new 0 0 78.006 77.974" xml:space="preserve">
<g id="KRfYBj_1_">
	<g>
		<path display="none" fill="#FEFEFE" d="M39.034,77.974c8.824,0,17.648,0.069,26.471-0.021c7.58-0.077,12.472-4.948,12.502-12.521
			c0.068-17.647,0.07-35.295-0.001-52.942C77.975,4.929,73.069,0.032,65.48,0C47.833-0.073,30.186-0.071,12.539-0.002
			C4.836,0.029,0.082,4.787,0.051,12.494c-0.069,17.647-0.067,35.295,0,52.942c0.028,7.534,4.975,12.45,12.512,12.52
			C21.386,78.037,30.21,77.975,39.034,77.974z"/>
		<path fill-rule="evenodd" clip-rule="evenodd" fill="#A1A1A1" d="M39.034,77.974c-8.824,0.001-17.648,0.063-26.471-0.018
			c-7.537-0.069-12.483-4.985-12.512-12.52c-0.067-17.647-0.069-35.295,0-52.942C0.082,4.787,4.836,0.029,12.539-0.002
			C30.186-0.071,47.833-0.073,65.48,0c7.588,0.032,12.495,4.929,12.525,12.489c0.071,17.647,0.069,35.295,0.001,52.942
			c-0.03,7.572-4.922,12.443-12.502,12.521C56.682,78.043,47.857,77.974,39.034,77.974z M41.458,31.187
			c-2.802-0.321-4.163,0.205-5.511,0.949c-4.665,2.572-9.314,5.183-14.062,7.595c-2.539,1.29-3.602,3.042-2.288,5.609
			c1.392,2.72,3.587,3.162,6.279,1.631c3.327-1.894,6.839-3.485,10.056-5.544c2.918-1.867,5.399-1.764,8.291,0.062
			c3.37,2.128,7,3.846,10.521,5.736c2.635,1.416,4.591,0.426,5.765-1.991c1.112-2.288,0.398-4.082-2.001-5.323
			c-5.028-2.598-9.959-5.386-14.968-8.023C42.542,31.363,41.376,31.16,41.458,31.187z"/>
		<path display="none" fill-rule="evenodd" clip-rule="evenodd" fill="#FEFEFE" d="M41.458,31.187
			c-0.081-0.026,1.085,0.177,2.081,0.701c5.009,2.638,9.939,5.426,14.968,8.023c2.4,1.241,3.114,3.035,2.001,5.323
			c-1.174,2.417-3.13,3.407-5.765,1.991c-3.521-1.891-7.15-3.608-10.521-5.736c-2.892-1.826-5.373-1.93-8.291-0.062
			c-3.217,2.059-6.729,3.65-10.056,5.544c-2.692,1.531-4.887,1.089-6.279-1.631c-1.314-2.567-0.251-4.319,2.288-5.609
			c4.749-2.412,9.397-5.022,14.062-7.595C37.295,31.392,38.656,30.865,41.458,31.187z"/>
	</g>
</g>
</svg>
