<?xml version="1.0" encoding="UTF-8" standalone="no"?>
<!-- Generator: Adobe Illustrator 16.0.0, SVG Export Plug-In . SVG Version: 6.00 Build 0)  -->

<svg
   xmlns:dc="http://purl.org/dc/elements/1.1/"
   xmlns:cc="http://creativecommons.org/ns#"
   xmlns:rdf="http://www.w3.org/1999/02/22-rdf-syntax-ns#"
   xmlns:svg="http://www.w3.org/2000/svg"
   xmlns="http://www.w3.org/2000/svg"
   xmlns:sodipodi="http://sodipodi.sourceforge.net/DTD/sodipodi-0.dtd"
   xmlns:inkscape="http://www.inkscape.org/namespaces/inkscape"
   version="1.1"
   id="Layer_1"
   x="0px"
   y="0px"
   width="100"
   height="100"
   viewBox="0 0 100 100"
   enable-background="new 0 0 1280 800"
   xml:space="preserve"
   inkscape:version="0.48.5 r10040"
   sodipodi:docname="icon_rotation.svg"><metadata
   id="metadata5212"><rdf:RDF><cc:Work
       rdf:about=""><dc:format>image/svg+xml</dc:format><dc:type
         rdf:resource="http://purl.org/dc/dcmitype/StillImage" /></cc:Work></rdf:RDF></metadata><defs
   id="defs5210" /><sodipodi:namedview
   pagecolor="#ffffff"
   bordercolor="#666666"
   borderopacity="1"
   objecttolerance="10"
   gridtolerance="10"
   guidetolerance="10"
   inkscape:pageopacity="0"
   inkscape:pageshadow="2"
   inkscape:window-width="1920"
   inkscape:window-height="1058"
   id="namedview5208"
   showgrid="false"
   inkscape:zoom="6.8603645"
   inkscape:cx="46.274026"
   inkscape:cy="45.211999"
   inkscape:window-x="-8"
   inkscape:window-y="-8"
   inkscape:window-maximized="1"
   inkscape:current-layer="Layer_1" />



<path
   d="m 56.541574,24.67336 c 0.277,-2.43 -0.18,-3.611 -0.824,-4.781 -2.23,-4.047001 -4.496,-8.080001 -6.588,-12.1980007 -1.119,-2.203 -2.64,-3.125 -4.866,-1.985 -2.36,1.207 -2.743,3.112 -1.415,5.4459997 1.644,2.888 3.023,5.934 4.811,8.725001 1.618,2.531 1.53,4.685 -0.055,7.193 -1.846,2.923 -3.336,6.073 -4.976,9.125 -1.229,2.286 -0.37,3.983 1.727,5.002 1.985,0.965 3.541,0.346 4.618,-1.736 2.252,-4.36 4.672,-8.639 6.959,-12.983 0.457,-0.866 0.632,-1.879 0.609,-1.808 z"
   id="path5204"
   inkscape:connector-curvature="0"
   style="fill:#a1a1a1" />
<path
   d="m 41.874398,75.336125 c -0.277,2.43 0.179,3.611 0.823,4.781 2.231,4.047 4.497,8.08 6.589,12.198 1.119,2.203 2.64,3.125 4.867,1.985 2.359,-1.207 2.742,-3.112 1.414,-5.446 -1.643,-2.888 -3.023,-5.934 -4.811,-8.725 -1.618,-2.531 -1.53,-4.685 0.055,-7.193 1.846,-2.923 3.336,-6.073 4.977,-9.125 1.229,-2.286 0.369,-3.983 -1.727,-5.002 -1.986,-0.965 -3.541,-0.346 -4.619,1.736 -2.253,4.36 -4.673,8.639 -6.96,12.983 -0.456,0.867 -0.632,1.879 -0.608,1.808 z"
   id="path5206"
   inkscape:connector-curvature="0"
   style="fill:#a1a1a1;stroke:none" />
<path
   style="fill:#ffffff;stroke:#a1a1a1;stroke-width:6;stroke-linecap:round;stroke-linejoin:miter;stroke-miterlimit:4;stroke-opacity:1;stroke-dasharray:none;fill-opacity:0"
   d="M 35.858153,73.616562 C 12.072477,59.122113 21.131452,24.03049 48.102401,22.74463"
   id="path5722"
   inkscape:connector-curvature="0"
   sodipodi:nodetypes="cc" /><path
   sodipodi:nodetypes="cc"
   inkscape:connector-curvature="0"
   id="path5724"
   d="m 62.938959,26.097223 c 23.78568,14.49445 14.72671,49.586068 -12.244251,50.871928"
   style="fill:#ffffff;fill-opacity:0;stroke:#a1a1a1;stroke-width:6;stroke-linecap:round;stroke-linejoin:miter;stroke-miterlimit:4;stroke-opacity:1;stroke-dasharray:none" /></svg>