<?xml version="1.0" encoding="UTF-8" standalone="no"?>
<!-- Generator: Adobe Illustrator 16.0.0, SVG Export Plug-In . SVG Version: 6.00 Build 0)  -->

<svg
   xmlns:dc="http://purl.org/dc/elements/1.1/"
   xmlns:cc="http://creativecommons.org/ns#"
   xmlns:rdf="http://www.w3.org/1999/02/22-rdf-syntax-ns#"
   xmlns:svg="http://www.w3.org/2000/svg"
   xmlns="http://www.w3.org/2000/svg"
   xmlns:sodipodi="http://sodipodi.sourceforge.net/DTD/sodipodi-0.dtd"
   xmlns:inkscape="http://www.inkscape.org/namespaces/inkscape"
   version="1.1"
   id="Layer_1"
   x="0px"
   y="0px"
   width="100"
   height="100"
   viewBox="0 0 100 100"
   enable-background="new 0 0 1280 800"
   xml:space="preserve"
   inkscape:version="0.48.5 r10040"
   sodipodi:docname="icon_linear.svg"><metadata
   id="metadata5178"><rdf:RDF><cc:Work
       rdf:about=""><dc:format>image/svg+xml</dc:format><dc:type
         rdf:resource="http://purl.org/dc/dcmitype/StillImage" /></cc:Work></rdf:RDF></metadata><defs
   id="defs5176" /><sodipodi:namedview
   pagecolor="#ffffff"
   bordercolor="#666666"
   borderopacity="1"
   objecttolerance="10"
   gridtolerance="10"
   guidetolerance="10"
   inkscape:pageopacity="0"
   inkscape:pageshadow="2"
   inkscape:window-width="1920"
   inkscape:window-height="1058"
   id="namedview5174"
   showgrid="false"
   inkscape:zoom="5.4824848"
   inkscape:cx="54.932924"
   inkscape:cy="42.495281"
   inkscape:window-x="-8"
   inkscape:window-y="-8"
   inkscape:window-maximized="1"
   inkscape:current-layer="Layer_1" />
<path
   d="m 35.87336,25.833858 c -2.43,-0.277 -3.611,0.179 -4.781,0.823 -4.047,2.231 -8.08,4.497 -12.198,6.589 -2.203,1.119 -3.125,2.64 -1.985,4.866 1.207,2.36 3.112,2.743 5.446,1.415 2.888,-1.644 5.934,-3.023 8.725,-4.811 2.531,-1.618 4.685,-1.53 7.193,0.055 2.923,1.846 6.073,3.336 9.125,4.976 2.286,1.229 3.983,0.37 5.003,-1.727 0.964,-1.985 0.345,-3.541 -1.737,-4.618 -4.36,-2.253 -8.639,-4.673 -12.983,-6.96 -0.867,-0.456 -1.879,-0.632 -1.808,-0.608 z"
   id="path5166"
   inkscape:connector-curvature="0"
   style="fill:#a1a1a1" />
<path
   d="m 38.34136,71.44686 c 0,1.825 -1.664,3.304 -3.717,3.304 l 0,0 c -2.053,0 -3.717,-1.479 -3.717,-3.304 V 34.600858 c 0,-1.825 1.664,-3.304 3.717,-3.304 l 0,0 c 2.053,0 3.717,1.479 3.717,3.304 V 71.44686 z"
   id="path5168"
   inkscape:connector-curvature="0"
   style="fill:#a1a1a1" />
<path
   d="m 67.223363,74.66786 c 2.43,0.277 3.611,-0.179 4.781,-0.823 4.047,-2.231 8.08,-4.497 12.198,-6.589 2.203,-1.119 3.125,-2.64 1.985,-4.866 -1.207,-2.36 -3.112,-2.743 -5.446,-1.415 -2.888,1.644 -5.934,3.023 -8.725,4.811 -2.531,1.618 -4.685,1.53 -7.193,-0.055 -2.923,-1.846 -6.073,-3.336 -9.125003,-4.976 -2.286,-1.229 -3.983,-0.37 -5.003,1.727 -0.964,1.985 -0.345,3.541 1.737,4.618 4.36,2.253 8.639003,4.673 12.983003,6.96 0.866,0.456 1.879,0.632 1.808,0.608 z"
   id="path5170"
   inkscape:connector-curvature="0"
   style="fill:#a1a1a1" />
<path
   d="m 64.755363,29.054858 c 0,-1.825 1.664,-3.304 3.717,-3.304 l 0,0 c 2.053,0 3.717,1.479 3.717,3.304 V 65.90086 c 0,1.825 -1.664,3.304 -3.717,3.304 l 0,0 c -2.053,0 -3.717,-1.479 -3.717,-3.304 V 29.054858 z"
   id="path5172"
   inkscape:connector-curvature="0"
   style="fill:#a1a1a1" />
</svg>