<?xml version="1.0" encoding="UTF-8" standalone="no"?>
<!-- Generator: Adobe Fireworks CS6, Export SVG Extension by Aaron Beall (http://fireworks.abeall.com) . Version: 0.6.1  -->

<svg
   xmlns:dc="http://purl.org/dc/elements/1.1/"
   xmlns:cc="http://creativecommons.org/ns#"
   xmlns:rdf="http://www.w3.org/1999/02/22-rdf-syntax-ns#"
   xmlns:svg="http://www.w3.org/2000/svg"
   xmlns="http://www.w3.org/2000/svg"
   xmlns:sodipodi="http://sodipodi.sourceforge.net/DTD/sodipodi-0.dtd"
   xmlns:inkscape="http://www.inkscape.org/namespaces/inkscape"
   id="Untitled-Page%201"
   viewBox="0 0 50 50"
   version="1.1"
   xml:space="preserve"
   x="0px"
   y="0px"
   width="50"
   height="50"
   inkscape:version="0.91 r13725"
   sodipodi:docname="magabot.svg"><metadata
     id="metadata4146"><rdf:RDF><cc:Work
         rdf:about=""><dc:format>image/svg+xml</dc:format><dc:type
           rdf:resource="http://purl.org/dc/dcmitype/StillImage" /><dc:title></dc:title></cc:Work></rdf:RDF></metadata><defs
     id="defs4144" /><sodipodi:namedview
     pagecolor="#ffffff"
     bordercolor="#666666"
     borderopacity="1"
     objecttolerance="10"
     gridtolerance="10"
     guidetolerance="10"
     inkscape:pageopacity="0"
     inkscape:pageshadow="2"
     inkscape:window-width="1920"
     inkscape:window-height="1017"
     id="namedview4142"
     showgrid="false"
     inkscape:zoom="11.994188"
     inkscape:cx="26.435025"
     inkscape:cy="23.244591"
     inkscape:window-x="-8"
     inkscape:window-y="-8"
     inkscape:window-maximized="1"
     inkscape:current-layer="Untitled-Page%201" /><path
     id="Ellipse"
     d="m 41.215363,6.8735519 c 1.738087,2.208097 3.030597,4.8251181 3.856119,7.6561981 1.620953,5.558996 0.526089,14.116004 -1.689718,20.42114 -1.345744,3.829329 -3.307221,7.451304 -5.083261,9.310873 -1.603312,1.678696 -3.462378,2.987856 -5.417974,3.864974 -1.924436,0.863135 -5.138812,1.341845 -7.9401,1.341845 -2.801287,0 -6.015663,-0.47871 -7.940099,-1.341845 C 15.044732,47.249619 13.185668,45.940459 11.582356,44.261763 9.8063165,42.402194 7.8448383,38.780219 6.4990946,34.95089 4.2832886,28.645754 3.1884245,20.088746 4.8093774,14.52975 5.6348975,11.69867 6.9274079,9.0816489 8.665497,6.8735519 11.724855,2.9868978 18.531218,0.58073603 24.940429,0.58073603 c 6.409225,0 13.215587,2.40616177 16.274934,6.29281587 z"
     inkscape:connector-curvature="0"
     style="fill:#000000;stroke:#ffffff;stroke-width:0.97775698" /><rect
     x="42.190857"
     y="8.6821499"
     width="5.726862"
     height="19.555138"
     rx="0.85902929"
     ry="0.85902929"
     id="rect4138"
     style="fill:#000000;stroke:#ffffff;stroke-width:2.09519362" /><rect
     x="1.9631408"
     y="8.6821499"
     width="5.726862"
     height="19.555138"
     rx="0.85902929"
     ry="0.85902929"
     id="rect4140"
     style="fill:#000000;stroke:#ffffff;stroke-width:2.09519362" /></svg>